<svg xmlns="http://www.w3.org/2000/svg" fill="#115E59" height="40" viewBox="0 -960 960 960" width="40"><path d="M447.564-367.564h64.872v-100h100v-64.872h-100v-100h-64.872v100h-100v64.872h100v100ZM480-124.512q-119.62-36.431-198.541-146.241-78.921-109.81-78.921-247.439v-212.112L480-834.257l277.462 103.953v212.112q0 137.629-78.921 247.439T480-124.512Zm0-34.808q106.731-34.427 175.878-134.988 69.148-100.562 69.148-223.795V-708.69L480-799.795 234.974-708.69v190.587q0 123.233 69.148 223.795Q373.269-193.747 480-159.32Zm0-320.129Z"/></svg>