<svg xmlns="http://www.w3.org/2000/svg" fill="#115E59" height="40" viewBox="0 -960 960 960" width="40"><path d="m698.723-111.442 62.046-63.353-106.782-107.5-63.352 62.764q-23.455 22.456-23.122 54.183.333 31.728 23.038 53.95 22.218 22.36 53.526 22.526 31.308.167 54.646-22.57Zm84.085-85.904 63.65-61.762q22.44-22.302 21.978-54.052-.462-31.75-22.769-54.404-23.103-21.757-53.912-21.949-30.809-.192-53.17 22.032l-62.764 63.866 106.987 106.269Zm-62.282 108.82q-32.603 32.603-77.013 32.327-44.41-.275-76.513-32.326-31.833-31.885-32.218-76.122-.385-44.237 32.218-76.686l149.269-149.27q30.992-31.333 76.234-31.333 45.241 0 76.574 31.692 32.103 32.462 32.103 76.934 0 44.472-32.103 76.233L720.526-88.525ZM194.974-194.974V-765.026v570.052Zm24.615 32.436q-23.328 0-40.189-16.862-16.862-16.861-16.862-40.189v-520.822q0-23.328 16.862-40.19 16.861-16.861 40.189-16.861h199.898q-8.449-29.449 10.239-54.583 18.688-25.135 50.238-25.135 32.318 0 51.042 25.135 18.725 25.134 9.507 54.583h199.898q23.328 0 40.19 16.861 16.861 16.862 16.861 40.19v216.424q-8.141-.5-16.41.225-8.27.724-16.026 1.019v-217.668q0-10.769-6.923-17.692t-17.692-6.923H219.589q-10.769 0-17.692 6.923t-6.923 17.692v520.822q0 10.769 6.923 17.692t17.692 6.923h215.386q-.398 8.141-.904 16.218-.507 8.077.493 16.218H219.589Zm260.304-620.18q13.046 0 22.474-9.064t9.428-22.475q0-13.41-9.428-22.474t-22.474-9.064q-13.047 0-22.111 9.064t-9.064 22.474q0 13.411 9.064 22.475 9.064 9.064 22.111 9.064ZM301.41-616.923v-32.436h357.18v32.436H301.41Zm0 153v-32.436h357.18v18.193q-3.58 3.463-7.22 6.808-3.639 3.345-7.383 6.576l-.858.859H301.41Zm0 153v-32.436h221.154l-6.718 7.231q-6.256 6.007-12.673 12.587-6.416 6.58-11.851 12.618H301.41Z"/></svg>